<?xml version="1.0" standalone="no"?>
<!DOCTYPE svg PUBLIC "-//W3C//DTD SVG 20010904//EN"
 "http://www.w3.org/TR/2001/REC-SVG-20010904/DTD/svg10.dtd">
<svg version="1.0" xmlns="http://www.w3.org/2000/svg"
 width="261.000000pt" height="153.000000pt" viewBox="0 0 261.000000 153.000000"
 preserveAspectRatio="xMidYMid meet">

<g transform="translate(0.000000,153.000000) scale(0.100000,-0.100000)"
fill="#000000" stroke="none">
<path d="M924 1419 c-46 -13 -119 -83 -139 -131 -25 -63 -22 -149 8 -203 l25
-43 -77 -83 -77 -83 -52 22 c-62 27 -157 29 -226 6 -64 -22 -147 -100 -177
-166 -32 -73 -33 -183 -1 -253 86 -189 332 -244 489 -110 23 19 44 35 46 35 3
0 29 -14 56 -32 50 -30 51 -32 44 -67 -20 -94 7 -181 73 -240 90 -79 220 -81
305 -4 60 54 83 105 84 184 0 56 -4 73 -30 114 -17 27 -50 63 -74 80 -39 28
-50 30 -125 30 -76 0 -87 -3 -136 -33 l-53 -33 -54 36 c-40 26 -53 41 -48 52
38 101 23 216 -41 299 l-23 32 71 78 c39 44 72 81 74 83 2 2 21 -4 44 -13 81
-32 196 -12 258 47 57 53 84 154 62 232 -19 68 -88 141 -153 160 -56 17 -106
18 -153 4z m-349 -597 c36 -7 40 -10 40 -37 l0 -30 -76 -3 c-104 -4 -114 -15
-114 -127 0 -95 11 -115 60 -115 61 0 65 5 65 81 l0 69 40 0 40 0 0 -110 0
-110 -29 0 c-16 0 -31 6 -34 14 -5 12 -12 11 -44 -5 -74 -38 -150 -13 -174 58
-20 56 -18 210 4 250 32 61 113 84 222 65z"/>
<path d="M2274 889 c-35 -10 -54 -43 -54 -94 0 -70 24 -94 135 -133 42 -15 51
-22 53 -45 4 -37 -32 -50 -114 -42 -61 7 -61 7 -68 -21 -5 -17 -3 -30 4 -34
20 -13 133 -19 180 -10 58 11 80 38 80 100 0 61 -31 101 -92 119 -78 24 -100
39 -96 69 3 27 4 27 91 30 l87 3 0 28 c0 26 -4 29 -46 35 -61 8 -122 6 -160
-5z"/>
<path d="M982 873 c-9 -18 -112 -346 -112 -357 0 -3 18 -6 40 -6 38 0 40 1 53
48 l14 47 69 0 68 0 14 -47 c13 -47 14 -48 53 -48 21 0 39 3 39 8 -1 14 -105
347 -113 360 -5 7 -30 12 -62 12 -42 0 -56 -4 -63 -17z m91 -116 c9 -39 17
-75 17 -79 0 -13 -90 -9 -90 3 0 9 23 97 35 137 9 27 21 8 38 -61z"/>
<path d="M1260 740 c0 -167 11 -215 52 -225 13 -3 61 -5 108 -3 l85 3 3 33 3
32 -80 0 -81 0 0 155 0 155 -45 0 -45 0 0 -150z"/>
<path d="M1530 883 c0 -5 24 -89 53 -188 l52 -180 54 -3 c30 -2 58 1 63 6 5 5
33 91 62 191 l53 181 -42 0 -43 0 -37 -152 c-21 -84 -41 -157 -46 -162 -8 -9
-12 3 -49 154 -44 175 -36 160 -80 160 -22 0 -40 -3 -40 -7z"/>
<path d="M1930 868 c-18 -20 -20 -35 -20 -165 0 -140 1 -145 25 -169 24 -24
30 -25 127 -22 l103 3 3 28 3 27 -71 0 c-95 0 -110 9 -110 65 l0 45 75 0 75 0
0 30 0 30 -75 0 -75 0 0 33 c0 49 14 57 102 57 l78 0 0 30 0 30 -110 0 c-99 0
-111 -2 -130 -22z"/>
</g>
</svg>
